<svg xmlns="http://www.w3.org/2000/svg" xmlns:xlink="http://www.w3.org/1999/xlink" width="47.594" height="47.59" viewBox="0 0 47.594 47.59">
  <metadata><?xpacket begin="﻿" id="W5M0MpCehiHzreSzNTczkc9d"?>
<x:xmpmeta xmlns:x="adobe:ns:meta/" x:xmptk="Adobe XMP Core 5.6-c142 79.160924, 2017/07/13-01:06:39        ">
   <rdf:RDF xmlns:rdf="http://www.w3.org/1999/02/22-rdf-syntax-ns#">
      <rdf:Description rdf:about=""/>
   </rdf:RDF>
</x:xmpmeta>
                                                                                                    
                                                                                                    
                                                                                                    
                                                                                                    
                                                                                                    
                                                                                                    
                                                                                                    
                                                                                                    
                                                                                                    
                                                                                                    
                                                                                                    
                                                                                                    
                                                                                                    
                                                                                                    
                                                                                                    
                                                                                                    
                                                                                                    
                                                                                                    
                                                                                                    
                                                                                                    
                           
<?xpacket end="w"?></metadata>
<defs>
    <style>
      .cls-1 {
        fill-rule: evenodd;
        filter: url(#filter);
      }
    </style>
    <filter id="filter" x="508.531" y="1121.88" width="47.594" height="47.59" filterUnits="userSpaceOnUse">
      <feFlood result="flood" flood-color="#555"/>
      <feComposite result="composite" operator="in" in2="SourceGraphic"/>
      <feBlend result="blend" in2="SourceGraphic"/>
    </filter>
  </defs>
  <path id="icon" class="cls-1" d="M555.668,1138.47a1.591,1.591,0,0,0-2.248,0l-13.847,13.84-19.467,8.58-3-3,8.576-19.47,13.844-13.84a1.59,1.59,0,1,0-2.248-2.25l-14.268,14.26-14.477,32.87,32.868-14.47,14.266-14.27A1.592,1.592,0,0,0,555.668,1138.47Zm-20.173,11a1.606,1.606,0,0,0,2.25,0l13.332-13.34a1.591,1.591,0,0,0-2.25-2.25L535.5,1147.22A1.593,1.593,0,0,0,535.5,1149.47Zm-3.48-3.48a1.606,1.606,0,0,0,2.25,0l13.333-13.34a1.591,1.591,0,0,0-2.25-2.25l-13.333,13.33A1.6,1.6,0,0,0,532.015,1145.99Zm-3.481-3.49a1.581,1.581,0,0,0,2.25,0l13.333-13.33a1.591,1.591,0,0,0-2.25-2.25l-13.333,13.33A1.593,1.593,0,0,0,528.534,1142.5Z" transform="translate(-508.531 -1121.88)"/>
</svg>
